<?xml version="1.0" standalone="no"?>
<!DOCTYPE svg PUBLIC "-//W3C//DTD SVG 1.1//EN" "http://www.w3.org/Graphics/SVG/1.1/DTD/svg11.dtd" >
<svg>
<metadata>
Created by FontForge 20120731 at Mon Jan 18 05:55:14 2016
 By root
</metadata>
<defs>
<font id="HannariMincho" horiz-adv-x="1000" >
  <font-face 
    font-family="(null)"
    font-weight="400"
    font-stretch="normal"
    units-per-em="1000"
    panose-1="2 0 5 9 0 0 0 0 0 0"
    ascent="800"
    descent="-200"
    bbox="31 -66 870 751"
    underline-thickness="50"
    underline-position="-100"
    unicode-range="U+0020-FF01"
  />
<missing-glyph 
 />
    <glyph glyph-name=".notdef" 
 />
    <glyph glyph-name="Identity.1" unicode=" " 
 />
    <glyph glyph-name="Identity.2" unicode="&#x3001;" 
d="M49 107l10 15c59 -19 107 -46 143 -82c18 -18 26 -38 26 -60c0 -30 -15 -45 -43 -45c-16 0 -26 12 -35 34c-18 50 -53 97 -101 138z" />
    <glyph glyph-name="Identity.3" unicode="&#x304a;" 
d="M173 154c-31 9 -54 0 -51 -7c2 -4 9 -6 18 -4c11 1 19 4 33 11zM301 186c-21 -15 -39 -29 -54 -39c17 -9 31 -18 44 -26c17 -12 24 -16 28 -14c8 3 9 13 9 24c0 12 0 42 -1 74c-9 -6 -18 -13 -26 -19zM403 513c-10 6 -24 19 -39 33c1 -20 2 -42 2 -59c0 -6 1 -13 1 -19
c15 7 27 15 38 22c10 6 12 15 -2 23zM133 104c-26 2 -44 13 -46 30c-2 18 13 34 35 41c23 6 54 3 75 -6c17 7 37 20 52 29c12 7 43 24 76 44c-1 34 -2 77 -3 124c0 14 0 27 -1 40c-21 -6 -40 -11 -53 -13c-21 -3 -46 -2 -69 7c-18 8 -35 24 -42 29c-6 6 -12 17 -4 24
c8 8 17 5 26 -1c9 -7 19 -13 39 -21c19 -7 39 -7 56 -3c14 4 27 9 46 18c-1 30 -3 54 -3 67c-1 22 -6 50 -10 71c-5 20 -19 38 -33 46c-13 8 -9 19 -4 25c4 6 13 8 29 5c15 -4 35 -17 44 -26c9 -8 17 -25 19 -41c0 -4 1 -10 1 -18c17 -12 38 -22 55 -31
c20 -10 39 -10 54 -11c14 -1 21 -6 25 -20c4 -15 -5 -33 -26 -46c-23 -14 -58 -31 -98 -44c-1 -1 -3 -1 -5 -2c0 -22 1 -43 1 -57v-95c42 27 94 56 151 76c59 20 120 14 164 -8c41 -19 72 -58 74 -102s-15 -82 -52 -131c-38 -49 -84 -72 -140 -79c-50 -6 -86 16 -94 51
c-7 35 -6 72 3 108c10 36 23 64 33 76c10 13 22 0 15 -11c-8 -11 -16 -25 -24 -66c-9 -40 2 -96 37 -105c36 -8 77 7 112 38c35 32 52 70 54 102c2 30 -7 58 -30 76c-22 19 -61 28 -101 25c-41 -4 -91 -20 -135 -45c-22 -13 -45 -27 -67 -41v-60c0 -21 1 -44 4 -64
c4 -20 -4 -37 -11 -51c-7 -15 -18 -27 -25 -32c-8 -5 -15 -4 -21 -4c-7 0 -12 2 -16 8c-4 4 -14 18 -27 39c-11 17 -26 41 -49 62c-5 -4 -12 -8 -17 -10c-25 -14 -48 -18 -74 -17zM803 491c13 -19 15 -38 2 -49c-13 -10 -38 -11 -53 8c-13 17 -23 29 -47 42
c-22 12 -44 13 -61 8c-16 -5 -28 -9 -37 -19c-5 -6 -10 -9 -16 -5c-2 3 -4 8 0 16c6 11 17 25 43 39c25 13 57 13 95 4c33 -7 60 -24 74 -44z" />
    <glyph glyph-name="Identity.4" unicode="&#x3067;" 
d="M799 443c-13 -5 -37 4 -49 19c-15 18 -33 28 -62 41c-9 4 -13 13 -9 19c3 6 11 4 17 4c15 1 34 -2 55 -9c20 -6 50 -20 61 -37c10 -16 2 -33 -13 -37zM721 401c-14 -4 -36 5 -51 19c-14 15 -33 30 -58 47c-8 6 -13 13 -8 20c3 4 12 4 17 3c15 0 33 -5 54 -12
s51 -23 60 -41c9 -16 0 -32 -14 -36zM223 463c-36 -4 -64 10 -80 26c-13 13 -24 37 -14 48c8 10 25 3 38 -2c15 -6 30 -11 59 -10c30 0 87 18 119 28c31 9 100 31 162 47c60 16 129 33 161 38c31 5 72 2 89 -9c16 -10 26 -28 20 -40c-7 -12 -19 -12 -35 -9
c-16 2 -36 7 -60 8c-24 0 -70 -6 -111 -12c-2 0 -4 -1 -7 -1c-13 -11 -34 -26 -51 -41c-24 -22 -41 -41 -56 -75c-11 -26 -15 -63 -21 -102c-7 -37 -10 -101 -3 -158c4 -34 16 -57 39 -75c19 -16 49 -22 81 -20c34 3 55 1 71 -2c16 -4 33 -17 41 -29s-1 -27 -22 -29
c-23 -2 -58 -3 -97 0c-38 3 -75 12 -108 39c-26 21 -38 49 -45 92c-7 45 -8 93 -2 144c7 53 16 90 23 121c7 32 24 61 44 81c12 12 32 30 48 41c-17 -4 -34 -9 -52 -16c-37 -14 -96 -39 -127 -51c-33 -12 -69 -29 -104 -32z" />
    <glyph glyph-name="Identity.5" unicode="&#x306e;" 
d="M404 454c8 55 8 102 6 142c-45 -12 -89 -32 -126 -58c-53 -38 -99 -92 -119 -147c-21 -55 -21 -117 -8 -152c14 -34 48 -41 88 -28c39 12 72 36 101 82c29 45 49 96 58 161zM760 495c20 -37 32 -67 36 -122c3 -55 0 -92 -13 -138c-14 -46 -45 -95 -97 -126
c-51 -31 -98 -47 -165 -60s-127 -8 -161 -1c-10 1 -15 5 -14 10c0 5 6 9 14 8c9 -1 29 -3 53 -3c39 1 81 6 120 17c39 12 82 31 122 59s76 83 86 142c10 57 3 112 -13 165c-18 60 -46 96 -88 124c-44 29 -111 43 -174 37c-8 -1 -17 -3 -26 -4c2 -20 2 -52 3 -77
c0 -33 -3 -81 -15 -137c-11 -57 -32 -125 -70 -176c-38 -50 -84 -84 -131 -84c-46 0 -80 27 -102 76s-26 91 -13 149c12 55 33 100 67 139c34 40 72 75 128 105c58 30 127 45 189 44c61 -1 117 -16 159 -42c47 -28 83 -66 105 -105z" />
    <glyph glyph-name="Identity.6" unicode="&#x3082;" 
d="M259 300c5 -4 9 -8 14 -11c1 20 4 39 7 56c-4 -2 -7 -5 -11 -7c-20 -12 -22 -26 -10 -38zM357 454h-13c0 -2 -1 -4 -2 -6c-4 -12 -6 -26 -9 -39c16 9 32 19 37 23c10 7 15 21 -13 22zM651 287c28 -39 39 -88 39 -129c1 -40 -12 -76 -36 -107c-23 -30 -67 -55 -108 -69
c-40 -14 -96 -17 -142 -8c-45 9 -91 33 -112 72c-22 42 -31 90 -27 149c0 12 1 25 2 37c-4 2 -8 5 -12 7c-30 18 -44 32 -44 54c-1 24 18 44 32 54c10 8 24 18 41 30c7 37 12 65 17 87c-6 2 -11 5 -18 7c-27 11 -45 24 -57 46s-13 45 -5 47c16 6 24 -13 39 -26
c13 -10 32 -19 52 -24c3 12 6 22 7 32c5 22 9 37 11 55c3 18 1 34 -2 47c-4 12 -12 28 -21 37s-14 17 -10 24s14 9 28 5c18 -5 40 -19 57 -35c17 -17 13 -48 0 -89c-7 -24 -17 -56 -25 -86c16 -3 33 -5 49 -6c29 -2 48 -10 54 -26c6 -17 -2 -34 -21 -45
c-18 -12 -52 -28 -85 -44c-9 -4 -18 -8 -26 -12c-4 -21 -7 -42 -9 -63c-2 -14 -4 -26 -6 -39c23 -8 66 -14 87 -13c21 2 35 0 47 -8c12 -7 22 -25 18 -34c-3 -9 -13 -14 -33 -16c-33 -3 -70 1 -97 8c-8 2 -17 5 -25 7c-1 -14 -1 -29 0 -45c2 -50 18 -97 59 -125
c40 -28 113 -35 170 -12c56 21 87 68 88 115c2 47 -4 82 -26 124c-20 40 -45 65 -68 85c-22 19 -42 30 -50 35c-9 4 -16 10 -12 17c2 5 12 5 19 2c15 -6 26 -10 52 -27c43 -29 81 -56 109 -95z" />
    <glyph glyph-name="Identity.7" unicode="&#x30a4;" 
d="M127 229c-14 -4 -21 13 -6 18c20 9 35 16 64 33c54 30 93 57 152 103c58 47 113 94 158 139s73 78 91 100s17 35 11 46c-7 11 -8 26 0 30c21 13 59 -10 72 -26c12 -15 16 -35 9 -48c-8 -15 -22 -26 -39 -41c-18 -15 -51 -42 -84 -73c-15 -14 -31 -29 -47 -44
c11 -2 24 -4 36 -10c22 -10 37 -22 40 -38c4 -16 -6 -24 -10 -40s-4 -58 -5 -92c-2 -32 -2 -78 -1 -120c0 -42 3 -92 3 -128c1 -36 -10 -59 -36 -58c-24 2 -35 40 -32 58s8 58 9 98c1 39 3 89 5 133c1 43 2 71 1 99c0 28 -3 48 -12 64c-4 7 -12 12 -20 14
c-10 -8 -19 -16 -28 -24c-34 -30 -95 -71 -142 -101c-48 -30 -75 -43 -103 -57c-27 -14 -53 -25 -86 -35z" />
    <glyph glyph-name="Identity.8" unicode="&#x30c0;" 
d="M850 661c-13 -5 -37 3 -50 18c-15 18 -32 30 -61 42c-9 4 -13 13 -9 19c3 4 12 4 16 4c16 0 34 -2 56 -9c21 -6 51 -21 61 -38c10 -16 2 -32 -13 -36zM771 619c-13 -4 -36 4 -50 19c-15 15 -32 30 -58 47c-8 5 -12 12 -8 19c3 5 12 4 16 4c17 0 35 -5 55 -12
c21 -8 50 -24 60 -41c9 -16 0 -32 -15 -36zM308 95c49 36 85 67 120 105c35 37 58 71 83 114c-4 6 -9 12 -13 16c-21 24 -39 37 -70 55c-9 6 -10 13 -8 16c6 8 20 4 29 0c34 -15 59 -29 84 -48c20 36 38 66 51 98c18 43 27 74 28 86c1 14 -6 14 -15 14c-19 0 -35 0 -67 -2
c-33 -2 -54 -5 -89 -12c-5 -1 -12 -2 -18 -3c-19 -35 -42 -68 -68 -98c-28 -34 -54 -66 -85 -91c-32 -26 -57 -42 -73 -49s-27 -11 -31 -4c-5 7 2 15 11 20c15 9 26 16 43 31c33 30 70 70 93 104s50 79 62 104c12 24 25 60 28 77c4 17 -1 31 -12 38c-9 7 -10 16 -6 22
c5 8 19 8 37 1c18 -6 35 -20 39 -44c2 -17 -6 -46 -18 -74c31 0 73 4 102 7c26 2 56 9 62 13c7 5 13 12 19 18c8 7 19 13 35 9c15 -4 35 -26 43 -40c7 -14 6 -24 -12 -38s-26 -22 -34 -40s-17 -44 -32 -79c-13 -32 -28 -61 -52 -100c15 -13 30 -27 42 -40
c22 -24 39 -67 8 -86c-32 -19 -61 22 -73 51c-3 8 -7 15 -11 23c-20 -27 -43 -55 -67 -80c-27 -30 -54 -53 -105 -90c-51 -38 -106 -65 -157 -86c-19 -9 -41 -16 -57 -20c-11 -3 -21 -2 -23 2c-3 8 0 13 17 18c28 10 50 19 74 31c25 12 61 33 86 51z" />
    <glyph glyph-name="Identity.9" unicode="&#x30e4;" 
d="M500 454c-32 -6 -63 -13 -92 -19c2 -19 6 -38 10 -56c5 -33 17 -80 26 -118c12 13 35 33 62 59c43 42 84 85 128 135c10 13 7 20 -9 18c-17 -1 -63 -7 -125 -19zM187 453c26 -8 69 2 109 10c17 4 37 8 58 12c-1 6 -3 10 -3 15c-8 42 -21 90 -28 111s-24 48 -42 62
c-19 16 -27 27 -20 41c6 11 29 11 49 5c21 -5 42 -14 57 -30s14 -38 11 -57c-3 -18 8 -72 15 -107c2 -9 4 -20 6 -31c14 3 28 6 41 8c43 9 156 30 182 34c25 5 39 8 51 20c12 13 24 19 47 18s41 -20 54 -30s13 -18 13 -35s-10 -27 -25 -36c-14 -10 -27 -20 -78 -57
s-102 -71 -161 -115c-35 -27 -60 -44 -73 -54c1 -6 2 -10 3 -14c8 -37 26 -99 41 -138c16 -41 14 -64 8 -90c-6 -25 -30 -33 -45 -17c-15 15 -24 38 -24 58c0 19 -2 45 -11 86s-24 118 -35 180c-7 39 -16 84 -23 124c-12 -3 -24 -5 -36 -8c-54 -9 -92 -24 -119 -27
c-26 -2 -45 2 -67 17c-21 14 -35 40 -25 52c15 18 45 0 70 -7z" />
    <glyph glyph-name="Identity.10" unicode="&#x30eb;" 
d="M463 182c-12 16 -8 29 5 44c9 10 12 20 12 51c-1 31 -1 91 0 146c1 56 2 96 2 129c1 33 -4 52 -26 68c-20 15 -26 31 -20 40c6 8 19 9 33 6c18 -4 34 -8 59 -25s28 -41 20 -55c-8 -15 -8 -37 -11 -123c-2 -84 -4 -155 -5 -178c-1 -22 3 -29 15 -29c13 0 30 7 64 28
c35 23 59 38 95 71c38 33 72 63 91 83c20 20 37 32 43 25c5 -5 0 -19 -22 -44c-26 -29 -74 -82 -122 -128c-50 -47 -89 -79 -123 -103c-34 -25 -50 -33 -66 -34c-17 -1 -34 13 -44 28zM288 205c-31 -48 -67 -83 -108 -120c-34 -31 -59 -48 -89 -63c-15 -6 -27 -10 -31 -4
s6 12 16 19c24 14 43 27 71 54c35 35 61 70 83 113c23 44 38 84 50 132c12 47 17 79 21 127c3 48 -1 71 -23 90c-13 10 -22 25 -15 34s18 10 41 4c20 -5 42 -15 61 -38c19 -21 18 -36 12 -45c-5 -6 -9 -15 -10 -28c-1 -25 -5 -63 -13 -108c-13 -65 -35 -119 -66 -167z" />
    <glyph glyph-name="Identity.11" unicode="&#x4e3b;" 
d="M301 717l11 18c55 -22 99 -49 133 -80c30 -27 45 -51 45 -73s-10 -34 -32 -34c-13 0 -24 10 -33 30c-24 52 -66 99 -124 139zM733 259h-262v-250h243l51 68c25 -23 47 -47 65 -72l-11 -18h-736l-10 22h341v250h-249l-11 23h260v218h-312l-11 23h597l49 64
c26 -25 48 -47 66 -69l-12 -18h-320v-218h165l45 61c21 -17 42 -39 62 -65z" />
    <glyph glyph-name="Identity.12" unicode="&#x53ef;" 
d="M836 620h-127v-600c0 -54 -34 -81 -103 -80c-1 19 -15 33 -40 42c-19 7 -55 13 -108 22v25c63 -7 117 -11 163 -11c22 0 32 10 32 31v571h-588l-8 23h669l52 68c28 -25 52 -50 69 -72zM436 456h-199v-222h199v222zM247 479h183l34 43c38 -30 57 -49 57 -56
c0 -3 -2 -8 -9 -12l-24 -17v-286h-52v60h-199v-82h-53v378c23 -10 45 -19 63 -28z" />
    <glyph glyph-name="Identity.13" unicode="&#x5973;" 
d="M485 196c56 90 96 193 120 309h-250c-29 -73 -63 -149 -102 -227c71 -21 148 -48 232 -82zM534 175c174 -78 262 -138 262 -181c0 -20 -9 -30 -27 -30c-9 0 -26 11 -53 34c-50 43 -119 89 -208 139c-86 -105 -232 -168 -437 -190l-12 22c188 31 322 96 401 193
c-73 37 -146 68 -219 94c-12 -22 -26 -49 -43 -81l-50 18c48 82 94 181 142 293l8 19h-237l-12 22h258c31 82 57 155 75 219c56 -10 84 -21 84 -33c0 -8 -14 -16 -42 -22c-19 -60 -39 -115 -60 -164h370l52 69c27 -27 48 -52 65 -73l-10 -18h-177
c-26 -126 -69 -236 -130 -330z" />
    <glyph glyph-name="Identity.14" unicode="&#x5a66;" 
d="M432 599h286v78h-300l-9 22h302l32 38c35 -28 53 -46 53 -53c0 -5 -2 -8 -7 -11l-20 -13v-220h-51v30h-307l-9 22h316v85h-278zM608 373v-111h125l30 34c37 -24 55 -40 55 -50c0 -4 -2 -6 -6 -9l-21 -14v-145c0 -43 -25 -64 -77 -63c0 17 -6 29 -19 35
c-10 7 -28 12 -53 17v21c28 -3 53 -5 74 -5c17 0 25 8 25 23v133h-133v-304h-50v304h-111v-233h-51v280c23 -8 44 -16 63 -24h99v111h-152c-1 -31 -7 -56 -17 -76c-11 -21 -25 -32 -39 -32c-20 0 -30 10 -30 30c0 7 7 18 18 30c25 24 40 57 43 100l21 -6c1 -10 2 -18 3 -24
h379l30 40c37 -36 56 -59 56 -68c0 -4 -2 -8 -9 -10l-29 -7c-12 -17 -29 -34 -51 -51l-17 11c10 20 18 41 23 63h-179zM277 520h-96l-2 -9c-19 -94 -35 -181 -55 -259c42 -19 74 -36 97 -50c27 88 46 194 56 318zM130 520h-89l-10 23h102l2 9c12 58 19 122 27 192
c56 -6 84 -16 84 -29c0 -8 -13 -15 -39 -22c-9 -72 -17 -122 -23 -150h90l32 44c34 -30 51 -49 51 -57c0 -4 -3 -8 -8 -11l-21 -12c-14 -135 -36 -246 -66 -332c58 -45 88 -80 88 -105c0 -20 -9 -30 -26 -30c-9 0 -21 11 -36 34c-9 14 -24 32 -44 54
c-47 -86 -113 -149 -196 -192l-15 19c77 52 134 122 173 210c-30 24 -58 46 -88 64c-1 -4 -2 -7 -3 -10c-1 -5 -4 -21 -12 -49l-47 14c35 135 59 246 74 336z" />
    <glyph glyph-name="Identity.15" unicode="&#x5b66;" 
d="M159 719l12 18c92 -32 138 -70 138 -112c0 -24 -11 -35 -32 -35c-13 0 -23 10 -31 29c-16 37 -44 70 -87 100zM349 735l14 16c82 -38 122 -80 122 -123c0 -22 -11 -34 -32 -34c-16 0 -26 11 -31 32c-9 36 -33 72 -73 109zM500 313c10 -4 15 -9 15 -13
c0 -7 -13 -14 -38 -21v-53h256l48 63c22 -21 42 -43 60 -69l-11 -17h-350v-190c0 -45 -32 -69 -97 -70v1c0 16 -7 26 -22 34c-18 8 -57 17 -116 26v24c67 -7 118 -10 151 -10c21 0 31 9 31 27v158h-354l-11 23h362v106c7 -1 22 -4 48 -9l5 3c41 26 77 53 109 83h-375l-10 23
h388l37 37c44 -34 65 -56 65 -64c0 -5 -4 -8 -14 -10l-25 -4c-41 -27 -91 -53 -152 -78zM157 559h396c33 54 63 117 90 191c58 -19 87 -35 87 -49c0 -8 -15 -13 -43 -15c-32 -47 -66 -88 -102 -127h165l34 42c42 -39 64 -64 64 -74c0 -3 -4 -7 -13 -10l-28 -9
c-25 -30 -53 -58 -84 -83l-17 13c24 43 39 75 46 98h-594v-13c0 -46 -7 -83 -25 -111c-13 -21 -28 -31 -43 -31c-23 0 -33 11 -33 32c0 11 4 19 13 27c37 34 57 85 61 150l21 -1c3 -19 5 -28 5 -30z" />
    <glyph glyph-name="Identity.16" unicode="&#x5b89;" 
d="M157 616h263v125c61 -1 90 -8 90 -21c0 -7 -12 -16 -38 -26v-78h277l36 43c42 -41 64 -67 64 -79c0 -6 -5 -9 -13 -10l-29 -5c-27 -28 -58 -58 -94 -89l-19 14c24 36 44 71 57 103h-594c0 -39 -5 -73 -16 -101c-13 -34 -30 -51 -51 -51c-22 0 -33 10 -33 31
c0 9 7 20 20 36c32 34 49 82 53 145l23 -1c1 -7 2 -14 3 -22v-5c1 -4 1 -8 1 -9zM269 204c89 -25 160 -47 211 -65c48 66 85 146 111 239h-225c-29 -60 -62 -119 -97 -174zM255 182c-16 -23 -28 -40 -36 -52l-50 19c51 69 96 144 137 229h-246l-11 22h268
c25 51 47 103 66 156c55 -12 82 -23 82 -35c0 -8 -14 -14 -43 -19c-16 -39 -29 -69 -38 -87l-7 -15h359l50 63c22 -19 44 -42 65 -67l-10 -18h-189c-27 -94 -67 -179 -123 -257c170 -64 256 -114 256 -149c0 -17 -8 -25 -24 -25c-7 0 -22 7 -46 23c-61 40 -131 79 -211 115
c-87 -90 -230 -140 -428 -148l-9 23c175 17 304 66 387 147c-72 30 -139 55 -199 75z" />
    <glyph glyph-name="Identity.17" unicode="&#x5c02;" 
d="M188 141l11 17c53 -19 92 -44 120 -71c21 -21 33 -39 33 -56c0 -24 -11 -36 -32 -36c-14 0 -25 11 -33 34c-13 35 -46 73 -99 112zM211 402v-100h205v100h-205zM416 425v90h-205v-90h205zM467 425h212v90h-212v-90zM679 302v100h-212v-100h212zM467 616v-79h204l35 43
c36 -28 54 -46 54 -54c0 -3 -3 -8 -10 -14l-19 -15v-247h-52v30h-64v-87h127l48 60c21 -17 38 -37 55 -56l9 -10l-11 -17h-228v-162c0 -40 -19 -62 -55 -68c-2 0 -4 0 -4 -1c-12 -2 -21 -4 -30 -4c0 17 -7 29 -18 35c-14 7 -49 15 -104 25v23c59 -6 101 -10 128 -10
c20 0 30 9 30 28v134h-505l-10 23h515v87h-351v-35h-51v319c17 -5 38 -14 61 -27h195v79h-343l-8 23h351v103c60 -2 91 -10 91 -22c0 -7 -14 -16 -40 -25v-56h256l46 59c25 -19 47 -40 66 -64l-10 -18h-358z" />
    <glyph glyph-name="Identity.18" unicode="&#x5fc3;" 
d="M634 213l24 -9v-61c0 -46 3 -76 9 -90c4 -10 13 -15 26 -15c-1 -28 -13 -46 -38 -53c-19 -6 -72 -8 -159 -8c-100 0 -157 5 -171 16c-13 10 -19 28 -19 55v479c62 -2 94 -10 94 -25c0 -8 -13 -16 -39 -24v-415c0 -18 4 -29 14 -32c9 -4 45 -7 106 -7c63 0 99 3 109 7
c20 10 35 71 44 182zM630 433l15 17c69 -57 122 -114 160 -172c29 -43 45 -78 45 -106s-12 -42 -35 -42c-15 0 -27 15 -35 43c-24 86 -74 173 -150 260zM177 429l23 -6v-22c0 -106 -16 -190 -48 -252c-23 -45 -48 -67 -74 -67c-21 0 -32 10 -32 30c0 12 9 26 28 43
c54 49 88 140 103 274zM304 697l10 18c72 -27 133 -57 181 -93c42 -31 63 -60 63 -88c0 -21 -11 -32 -32 -32c-9 0 -22 9 -36 30c-37 58 -99 114 -186 165z" />
    <glyph glyph-name="Identity.19" unicode="&#x6027;" 
d="M215 -65h-52v807c59 0 89 -8 89 -21c0 -7 -12 -16 -37 -26v-760zM82 569l23 -3c9 -53 14 -96 14 -128c0 -92 -19 -138 -57 -138c-21 0 -31 10 -31 28c0 6 5 16 13 32c24 44 37 113 38 209zM227 581l18 14c53 -57 79 -105 79 -146c0 -25 -11 -38 -32 -38
c-14 0 -22 12 -24 36c-3 42 -16 87 -41 134zM820 486h-223v-218h108l43 59c24 -26 43 -47 57 -64l-11 -17h-197v-251h153l46 63l11 -10c21 -21 37 -40 51 -57l-11 -18h-549l-11 22h256v251h-171l-9 22h180v218h-120c-22 -68 -53 -131 -95 -191l-22 13c51 98 85 224 103 377
c56 -15 85 -28 85 -40c0 -8 -12 -13 -35 -18c-11 -53 -21 -92 -29 -119h113v229c62 -1 92 -9 92 -23c0 -8 -12 -17 -38 -25v-181h129l44 60c18 -17 36 -35 53 -56l7 -9z" />
    <glyph glyph-name="Identity.20" unicode="&#x65b9;" 
d="M68 571h352v174c63 -2 95 -10 95 -23c0 -9 -14 -18 -42 -28v-123h244l50 64c20 -18 43 -41 67 -70l-9 -17h-399c0 -67 -4 -125 -11 -173h264l36 44c38 -29 57 -48 57 -57c0 -5 -2 -9 -8 -12l-23 -14c-5 -204 -27 -323 -65 -360c-21 -20 -51 -31 -89 -30
c-1 18 -15 31 -41 41c-17 6 -55 14 -113 24v25c65 -9 117 -14 157 -14c37 0 59 15 68 45c18 63 29 158 30 286h-277c-15 -96 -44 -176 -87 -241c-49 -72 -122 -132 -222 -178l-14 22c123 73 204 169 243 289c20 60 36 136 36 227v17l1 14c1 15 1 30 1 45h-293z" />
    <glyph glyph-name="Identity.21" unicode="&#x751f;" 
d="M749 257h-263v-243h245l51 67c18 -17 40 -41 63 -71l-10 -18h-768l-9 22h371v243h-257l-9 23h266v210h-200c-35 -77 -79 -145 -135 -207l-18 13c72 105 123 236 151 392c60 -15 90 -29 90 -41c0 -9 -14 -15 -41 -20c-11 -38 -23 -75 -38 -114h191v217
c64 -3 97 -11 97 -24c0 -9 -14 -18 -40 -27v-166h208l48 64c23 -23 44 -46 61 -69l-10 -18h-307v-210h166l47 64c21 -20 41 -42 61 -67z" />
    <glyph glyph-name="Identity.22" unicode="&#x7528;" 
d="M206 268h218v179h-217v-140c0 -17 -1 -30 -1 -39zM424 470v172h-217v-172h217zM475 470h242v172h-242v-172zM717 268v179h-242v-179h242zM219 664h489l38 45c38 -30 57 -50 57 -58c0 -5 -3 -8 -8 -12l-24 -15v-601c0 -50 -31 -75 -93 -74c-1 17 -10 30 -28 37
c-15 5 -45 11 -90 19v24c40 -6 80 -7 118 -7c26 0 39 10 39 28v196h-242v-256h-51v256h-219c-12 -139 -61 -243 -147 -312l-18 18c76 84 114 202 114 356v386c22 -8 44 -18 65 -30z" />
    <glyph glyph-name="Identity.23" unicode="&#x7533;" 
d="M202 374v-172h212v172h-212zM414 397v163h-212v-163h212zM469 397h222v163h-222v-163zM691 202v172h-222v-172h222zM469 685v-103h214l36 45c41 -33 61 -54 61 -61c0 -4 -1 -6 -7 -10l-28 -17v-430h-54v70h-222v-244h-55v244h-212v-76h-55v509c13 -5 34 -15 63 -30h204
v154c64 -3 95 -11 95 -24c0 -8 -13 -17 -40 -27z" />
    <glyph glyph-name="Identity.24" unicode="&#x80fd;" 
d="M561 280v-123c71 27 136 66 194 117c38 -27 57 -46 57 -58c0 -6 -6 -9 -16 -9c-6 0 -15 1 -27 4c-63 -35 -133 -61 -208 -80v-95c0 -17 3 -26 13 -29c11 -3 34 -5 71 -5c60 0 95 2 106 6c21 7 36 51 42 135l23 -8c0 -52 3 -85 6 -100c3 -14 10 -22 26 -22
c-2 -24 -13 -40 -34 -47c-20 -7 -67 -11 -139 -11c-87 0 -137 5 -150 16c-10 8 -16 25 -16 48v308c58 -3 88 -10 88 -23c0 -8 -13 -16 -36 -24zM561 690v-134c72 30 133 67 186 111c38 -26 58 -45 58 -56c0 -6 -7 -9 -18 -9c-9 0 -18 1 -27 4c-54 -29 -121 -54 -199 -76v-92
c0 -13 3 -22 12 -26s40 -6 91 -6c56 0 87 6 95 20c9 16 15 54 19 111l24 -9c0 -47 2 -76 5 -90c6 -13 15 -20 29 -20c-1 -27 -14 -43 -37 -49s-66 -9 -129 -9c-74 0 -120 4 -138 13c-15 8 -23 25 -23 52v313c58 -3 88 -11 88 -23c0 -9 -13 -17 -36 -25zM393 533
c-80 -19 -180 -35 -299 -50c-6 -20 -12 -30 -18 -30c-13 0 -23 26 -30 79c46 1 75 2 85 3c32 62 57 130 79 207c55 -16 82 -30 82 -43c0 -8 -13 -13 -40 -15c-20 -41 -50 -89 -93 -148h9c70 0 140 11 211 19c-20 29 -44 57 -75 84l13 16c57 -33 99 -67 127 -103
c19 -26 28 -47 28 -65c0 -21 -9 -32 -28 -32c-13 0 -22 10 -28 31c-5 14 -12 30 -23 47zM168 170h183v106h-183v-106zM351 393h-183v-94h183v94zM175 416h169l33 38c35 -27 52 -43 52 -51c0 -3 -2 -7 -8 -11l-20 -12v-380c0 -40 -28 -59 -84 -58c0 16 -8 27 -25 35
c-13 4 -35 10 -64 15v24c41 -4 73 -7 94 -7c19 0 29 9 29 27v112h-183v-213h-50v505c20 -7 39 -15 57 -24z" />
    <glyph glyph-name="Identity.25" unicode="&#x8fbc;" 
d="M82 690l12 16c105 -38 158 -83 158 -134c0 -24 -11 -36 -32 -36c-15 0 -26 10 -35 31c-18 44 -54 85 -103 123zM542 522c-4 29 -7 70 -7 124h-165l-9 23h161l34 46c40 -32 60 -52 60 -61c0 -5 -5 -9 -14 -13l-38 -16c3 -131 35 -239 96 -325c40 -58 98 -111 172 -159
c-18 -11 -35 -28 -49 -49c-113 91 -186 196 -220 317c-49 -136 -135 -242 -258 -317l-15 19c133 100 217 237 252 411zM245 322v-189c29 -51 74 -84 136 -102c57 -16 137 -25 238 -25c66 0 146 5 240 13c-14 -24 -22 -44 -26 -61h-188c-122 0 -215 10 -277 32
c-63 22 -107 59 -135 110c-4 -5 -7 -7 -9 -11c-37 -45 -75 -84 -114 -117c-1 -24 -6 -37 -12 -37c-11 0 -30 24 -55 70c51 25 100 56 150 93v239h-142l-8 23h141l34 43c37 -30 56 -48 56 -57c0 -4 -3 -7 -9 -11z" />
    <glyph glyph-name="Identity.26" unicode="&#xff01;" 
d="M462 176h-24c-22 273 -34 439 -34 495c0 35 15 52 46 52s46 -17 46 -53c0 -38 -9 -172 -27 -401zM449 79c12 0 22 -3 32 -9c17 -12 26 -27 26 -48c0 -14 -5 -28 -16 -38c-11 -12 -26 -18 -41 -18c-10 0 -19 2 -26 6c-21 10 -31 27 -31 50c0 16 6 29 17 41
c11 11 24 16 39 16z" />
  </font>
</defs>
</svg>
